# xmcd CD database file
#
# Track frame offsets:
#	150
#	41882
#	69012
#	85732
#	106267
#	151592
#	175197
#	216017
#	237842
#	256287
#	293757
#	319635
#
# Disc length: 4608 seconds
#
# Revision: 0
# Processed by: cddbd v1.5.1PL0 Copyright (c) Steve Scherf et al.
# Submitted via: CDex 1.51
#
DISCID=9311fe0c
DTITLE=Willis Jackson - Legends of Acid Jazz
DYEAR=1960
DGENRE=Jazz
TTITLE0=Blue Gator
TTITLE1=Try A Little Tenderness
TTITLE2=Gator's Tail
TTITLE3=This Nearly Was Mine
TTITLE4=East Breeze
TTITLE5=She's Funny That Way
TTITLE6=Mellow Blues
TTITLE7=Sportin'
TTITLE8=When I Fall In Love
TTITLE9=Cookin' Sherry
TTITLE10=Where Are You?
TTITLE11=Contrasts
EXTD=YEAR: 1960
EXTT0=
EXTT1=
EXTT2=
EXTT3=
EXTT4=
EXTT5=
EXTT6=
EXTT7=
EXTT8=
EXTT9=
EXTT10=
EXTT11=
PLAYORDER=
